<svg width="16" height="16" viewBox="0 0 16 16" fill="none" xmlns="http://www.w3.org/2000/svg">
<g clip-path="url(#clip0_37_169)">
<path d="M7.10438 8.88452C5.78663 8.88452 1.90832 8.88452 1.90832 8.88452C1.49661 8.88452 1.15973 9.22135 1.15973 9.63306V15.2516C1.15973 15.6633 1.49661 16.0001 1.90832 16.0001C1.90832 16.0001 5.86778 16.0001 7.19175 16.0001C7.36785 16.0001 7.36785 15.8109 7.36785 15.8109V9.13889C7.3678 9.13889 7.3678 8.88452 7.10438 8.88452Z" fill="#3D3D3D"/>
<path d="M14.0917 8.88452C14.0917 8.88452 10.1985 8.88452 8.90091 8.88452C8.58475 8.88452 8.63209 9.21377 8.63209 9.21377V15.817C8.63209 15.817 8.62953 15.9999 8.8197 15.9999C10.1377 15.9999 14.0916 15.9999 14.0916 15.9999C14.5033 15.9999 14.8402 15.6631 14.8402 15.2514V9.63306C14.8403 9.22135 14.5034 8.88452 14.0917 8.88452Z" fill="#3D3D3D"/>
<path d="M7.3678 4.46374C7.3678 4.46374 7.3678 4.21008 7.11715 4.21008C5.6162 4.21008 1.06298 4.21008 1.06298 4.21008C0.651274 4.21008 0.314392 4.54696 0.314392 4.95862V7.2953C0.314392 7.70701 0.651274 8.04384 1.06298 8.04384C1.06298 8.04384 5.6366 8.04384 7.13765 8.04384C7.3678 8.04384 7.3678 7.84423 7.3678 7.84423V4.46374Z" fill="#3D3D3D"/>
<path d="M14.937 4.21008C14.937 4.21008 10.3819 4.21008 8.8635 4.21008C8.6322 4.21008 8.6322 4.43047 8.6322 4.43047V7.84886C8.6322 7.84886 8.6322 8.04384 8.9134 8.04384C10.4193 8.04384 14.937 8.04384 14.937 8.04384C15.3487 8.04384 15.6856 7.70701 15.6856 7.2953V4.95862C15.6856 4.54696 15.3487 4.21008 14.937 4.21008Z" fill="#3D3D3D"/>
<path d="M4.82168 3.65623C4.47918 3.65623 4.16635 3.62907 3.89203 3.57546C3.19525 3.43933 2.71635 3.17439 2.42795 2.76557C2.16955 2.39918 2.09047 1.9475 2.19284 1.42301C2.37216 0.50535 2.98844 0 3.92802 0C4.12687 0 4.34524 0.0229605 4.57713 0.0682817C5.16702 0.183521 5.9215 0.521766 6.59542 0.973068C7.73882 1.73884 7.79537 2.2149 7.73843 2.50641C7.65472 2.93475 7.25435 3.24082 6.51444 3.44217C6.01454 3.57819 5.39755 3.65623 4.82168 3.65623ZM3.92808 1.19978C3.5642 1.19978 3.43914 1.30144 3.37048 1.65305C3.3143 1.94052 3.38515 2.04092 3.40838 2.07392C3.50568 2.2119 3.75912 2.32698 4.12207 2.39782C4.31791 2.43611 4.5599 2.45634 4.82163 2.45634C5.39717 2.45634 5.90421 2.36913 6.24065 2.27375C6.26514 2.26682 6.30315 2.23786 6.26241 2.21359C5.82257 1.85528 5.01786 1.37681 4.34709 1.24576C4.19084 1.21533 4.04981 1.19978 3.92808 1.19978Z" fill="#3D3D3D"/>
<path d="M11.1956 3.65618C11.1956 3.65618 11.1956 3.65618 11.1955 3.65618C10.6197 3.65618 10.0027 3.57813 9.50282 3.44212C8.76285 3.24082 8.36254 2.93469 8.27882 2.50641C8.22194 2.2149 8.27839 1.73884 9.42189 0.973069C10.0957 0.521766 10.8502 0.183521 11.4402 0.0682817C11.6721 0.0229605 11.8904 0 12.0891 0C13.0289 0 13.6452 0.505404 13.8243 1.42306C13.9268 1.9475 13.8478 2.39918 13.5893 2.76557C13.3009 3.17444 12.8221 3.43933 12.1251 3.57546C11.8509 3.62896 11.5381 3.65618 11.1956 3.65618ZM9.76444 2.20612C9.72545 2.22875 9.74432 2.26448 9.76455 2.27031C10.1008 2.36701 10.6132 2.45634 11.1955 2.45634C11.4574 2.45634 11.6992 2.43611 11.8951 2.39782C12.258 2.32692 12.5116 2.2119 12.6088 2.07392C12.6322 2.04092 12.7031 1.94052 12.6467 1.65305C12.5781 1.30144 12.453 1.19978 12.0891 1.19978C11.9674 1.19978 11.8265 1.21527 11.6701 1.24581C10.9993 1.37681 10.2043 1.84775 9.76444 2.20612Z" fill="#3D3D3D"/>
</g>
<defs>
<clipPath id="clip0_37_169">
<rect width="16" height="16" fill="white"/>
</clipPath>
</defs>
</svg>
