<svg width="19" height="19" viewBox="0 0 19 19" fill="none" xmlns="http://www.w3.org/2000/svg">
<path fill-rule="evenodd" clip-rule="evenodd" d="M13.5449 3.97128C15.1922 4.35354 15.8224 5.31679 16.6124 6.64258H13.5449V3.97128ZM3.91794 6.75391C4.24047 6.75391 4.47458 6.90959 4.47458 7.27344C4.47458 7.58031 4.22626 7.82921 3.91953 7.83008H0.556641C0.249184 7.83008 0 8.07941 0 8.38672C0 8.69418 0.249184 8.94336 0.556641 8.94336H5.56641C5.87676 8.94336 6.12522 9.1924 6.12522 9.5C6.12522 9.80746 5.87604 10.0566 5.56858 10.0566H0.556641C0.249184 10.0566 0 10.3058 0 10.6133C0 10.9207 0.249184 11.1699 0.556641 11.1699H1.78125V12.8398C1.78125 13.1473 2.03043 13.3965 2.33789 13.3965H3.45683C3.65629 14.379 4.52444 15.1035 5.54785 15.1035C6.57126 15.1035 7.43941 14.379 7.63888 13.3965H13.2908C13.4903 14.379 14.3584 15.1035 15.3818 15.1035C16.4052 15.1035 17.2734 14.379 17.4729 13.3965H18.4434C18.7508 13.3965 19 13.1473 19 12.8398V9.5C19 7.86675 17.2773 7.75832 17.2757 7.75586H12.9883C12.6808 7.75586 12.4316 7.50668 12.4316 7.19922V3.85938H2.33789C2.03043 3.85938 1.78125 4.10856 1.78125 4.41602V5.64062H1.11328C0.805824 5.64062 0.556641 5.88981 0.556641 6.19727C0.556641 6.50472 0.805824 6.75391 1.11328 6.75391H3.91794ZM16.1034 12.2481C16.5019 12.6466 16.5019 13.293 16.1034 13.6915C15.4624 14.3325 14.3613 13.8764 14.3613 12.9697C14.3613 12.0632 15.4624 11.6071 16.1034 12.2481ZM6.26945 12.2481C6.66795 12.6466 6.66795 13.293 6.26945 13.6915C5.62845 14.3325 4.52734 13.8764 4.52734 12.9697C4.52734 12.0632 5.62845 11.6071 6.26945 12.2481Z" fill="#3D3D3D"/>
</svg>
